<?xml version="1.0" standalone="no"?>
<!DOCTYPE svg PUBLIC "-//W3C//DTD SVG 20010904//EN"
 "http://www.w3.org/TR/2001/REC-SVG-20010904/DTD/svg10.dtd">
<svg version="1.0" xmlns="http://www.w3.org/2000/svg"
 width="97.000000pt" height="105.000000pt" viewBox="0 0 97.000000 105.000000"
 preserveAspectRatio="xMidYMid meet">
<metadata>
Created by potrace 1.16, written by Peter Selinger 2001-2019
</metadata>
<g transform="translate(0.000000,105.000000) scale(0.100000,-0.100000)"
fill="#000000" stroke="none">
<path d="M540 1023 c-19 -22 -21 -30 -11 -45 14 -22 5 -42 -15 -34 -8 3 -38
-3 -67 -14 -48 -18 -80 -22 -147 -18 -14 0 -83 18 -154 40 -127 38 -156 39
-143 6 3 -9 59 -28 133 -47 71 -19 144 -42 163 -53 55 -31 113 -48 167 -48 55
0 54 1 46 -67 -1 -7 -25 -38 -52 -68 -52 -57 -106 -154 -93 -166 5 -3 25 -9
45 -12 28 -4 43 -1 62 14 29 23 36 24 36 5 0 -24 23 -33 98 -40 48 -5 72 -4
72 3 0 6 -12 11 -27 12 -26 1 -27 1 -5 7 23 7 23 7 -7 25 -17 10 -31 24 -31
32 0 7 14 37 32 65 28 45 31 55 21 81 -9 24 -8 31 5 38 18 10 41 95 42 153 0
25 -8 46 -25 66 -14 17 -25 37 -25 45 0 37 -12 47 -54 47 -33 0 -47 -6 -66
-27z"/>
<path d="M294 428 c-26 -35 -50 -56 -72 -63 -35 -10 -46 -45 -14 -45 32 0 132
22 132 30 0 4 21 28 46 54 27 27 43 51 38 55 -5 5 -27 12 -50 16 -40 6 -41 5
-80 -47z"/>
<path d="M160 167 c-19 -10 -25 -20 -25 -47 0 -32 4 -36 43 -50 51 -17 59 -34
19 -38 -18 -2 -29 2 -33 12 -9 22 -44 20 -44 -2 0 -29 21 -42 71 -42 54 0 72
16 67 57 -3 24 -10 30 -50 43 -49 15 -58 33 -20 38 13 2 25 -3 28 -12 8 -20
44 -21 44 -2 0 16 -26 46 -40 46 -5 0 -14 2 -22 5 -7 3 -24 -1 -38 -8z"/>
<path d="M600 85 c0 -78 2 -85 20 -85 16 0 20 7 20 30 0 25 4 30 23 30 35 0
67 27 67 59 0 39 -17 51 -77 51 l-53 0 0 -85z"/>
</g>
</svg>
